<?xml version="1.0" encoding="utf-8"?>
<!-- Generator: Adobe Illustrator 15.0.0, SVG Export Plug-In . SVG Version: 6.00 Build 0)  -->
<!DOCTYPE svg PUBLIC "-//W3C//DTD SVG 1.1//EN" "http://www.w3.org/Graphics/SVG/1.1/DTD/svg11.dtd">
<svg version="1.1" xmlns="http://www.w3.org/2000/svg" xmlns:xlink="http://www.w3.org/1999/xlink" x="0px" y="0px"
	 width="841.89px" height="841.89px" viewBox="0 0 841.89 841.89" enable-background="new 0 0 841.89 841.89" xml:space="preserve">
<g id="Layer_2">
	<path fill="#F57E20" d="M519.694,567.95c0,0.141,0.005,0.277,0.005,0.416c0,55.203-44.909,100.111-100.11,100.111
		c-55.202,0-100.111-44.908-100.111-100.111c0-0.061,0.001-0.122,0.001-0.182c-3.572-0.043-7.146-0.089-10.721-0.141
		c0.077,61.302,49.973,111.155,111.293,111.155c61.329,0,111.231-49.867,111.293-111.181
		C527.46,567.989,523.576,567.968,519.694,567.95z"/>
	<path fill="#F57E20" d="M498.439,568.056c0,0.035,0.002,0.072,0.002,0.107c0,43.365-35.28,78.646-78.647,78.646
		c-43.368,0-78.65-35.281-78.65-78.646c0-0.045,0.001-0.089,0.001-0.133c-0.865-0.001-1.728-0.002-2.593-0.003
		c0,0.046-0.001,0.09-0.001,0.136c0,44.795,36.445,81.241,81.244,81.241c44.796,0,81.241-36.446,81.241-81.241
		c0-0.044-0.002-0.086-0.002-0.128C500.168,568.044,499.305,568.046,498.439,568.056z"/>
</g>
<g id="Layer_3">
	<rect x="519.665" y="276.128" fill="#F57E20" width="11.681" height="292.067"/>
	<rect x="308.757" y="276.128" fill="#F57E20" width="10.729" height="292.067"/>
	<rect x="338.541" y="276.042" fill="#F57E20" width="2.624" height="292.068"/>
	<rect x="498.412" y="276.69" fill="#F57E20" width="2.623" height="292.067"/>
</g>
<g id="Layer_1">
	<g>
		<rect x="189.583" y="513.878" fill="#F57E20" width="15.803" height="83.148"/>
		<rect x="219.944" y="526.449" fill="#F57E20" width="46.905" height="57.754"/>
	</g>
	<g>
		
			<rect x="251.414" y="691.09" transform="matrix(0.7071 -0.7071 0.7071 0.7071 -442.1354 397.9868)" fill="#F57E20" width="15.803" height="83.15"/>
		
			<rect x="268.239" y="671.237" transform="matrix(0.7071 -0.7071 0.7071 0.7071 -409.6177 411.3098)" fill="#F57E20" width="46.904" height="57.751"/>
	</g>
	<g>
		<rect x="635.688" y="516.178" fill="#F57E20" width="15.804" height="83.149"/>
		<rect x="574.226" y="528.75" fill="#F57E20" width="46.904" height="57.753"/>
	</g>
	<g>
		<rect x="189.583" y="377.675" fill="#F57E20" width="15.803" height="83.149"/>
		<rect x="219.944" y="390.247" fill="#F57E20" width="46.905" height="57.754"/>
	</g>
	<g>
		<rect x="635.688" y="379.976" fill="#F57E20" width="15.804" height="83.149"/>
		<rect x="574.226" y="392.547" fill="#F57E20" width="46.904" height="57.753"/>
	</g>
	<g>
		<rect x="189.583" y="239.648" fill="#F57E20" width="15.803" height="83.15"/>
		<rect x="219.944" y="252.221" fill="#F57E20" width="46.905" height="57.753"/>
	</g>
	<g>
		<rect x="635.688" y="240.792" fill="#F57E20" width="15.804" height="83.15"/>
		<rect x="574.226" y="253.364" fill="#F57E20" width="46.904" height="57.754"/>
	</g>
	<g>
		
			<rect x="576.607" y="688.674" transform="matrix(-0.7071 -0.7071 0.7071 -0.7071 481.4165 1659.9205)" fill="#F57E20" width="15.806" height="83.151"/>
		
			<rect x="528.682" y="668.817" transform="matrix(-0.7071 -0.7071 0.7071 -0.7071 449.1956 1581.4554)" fill="#F57E20" width="46.905" height="57.754"/>
	</g>
	<g>
		<rect x="379.1" y="783.296" fill="#F57E20" width="83.151" height="15.803"/>
		<rect x="391.673" y="721.832" fill="#F57E20" width="57.752" height="46.904"/>
	</g>
	<path fill="#F57E20" d="M319.081,276.777c-0.001-0.139,0.404,0.636,0.404,0.496c0-55.202,45.139-101.032,100.339-101.032
		c55.203,0,99.84,45.247,99.84,100.449c0,0.061,1.073,0.028,1.073,0.089c3.573,0.042,7.032-0.142,10.607-0.089
		c-0.076-61.302-50.662-111.171-111.984-111.171c-61.329,0-110.542,49.935-110.604,111.248
		C312.643,276.797,315.198,276.76,319.081,276.777z"/>
	<path fill="#F57E20" d="M341.143,277.398c0-0.036-0.001-0.072-0.001-0.107c0-43.365,35.28-78.647,78.647-78.647
		c43.367,0,78.649,35.282,78.649,78.647c0,0.044-0.002,0.088-0.002,0.132c0.864,0,1.729,0.003,2.594,0.003
		c0-0.045,0.002-0.09,0.002-0.135c0-44.795-36.446-81.241-81.243-81.241c-44.796,0-81.242,36.446-81.242,81.241
		c0,0.043,0.002,0.085,0.002,0.127C339.414,277.41,340.277,277.406,341.143,277.398z"/>
	<g>
		
			<rect x="572.932" y="70.479" transform="matrix(-0.7071 0.7071 -0.7071 -0.7071 1070.7792 -219.4248)" fill="#F57E20" width="15.804" height="83.149"/>
		
			<rect x="525.007" y="115.73" transform="matrix(-0.7071 0.7071 -0.7071 -0.7071 1038.5352 -140.9505)" fill="#F57E20" width="46.903" height="57.751"/>
	</g>
	<g>
		
			<rect x="247.737" y="72.893" transform="matrix(0.7071 0.7071 -0.7071 0.7071 155.8222 -147.2395)" fill="#F57E20" width="15.805" height="83.15"/>
		
			<rect x="264.563" y="118.147" transform="matrix(0.7071 0.7071 -0.7071 0.7071 188.3192 -160.595)" fill="#F57E20" width="46.905" height="57.754"/>
	</g>
	<g>
		<rect x="377.899" y="45.62" fill="#F57E20" width="83.15" height="15.802"/>
		<rect x="390.724" y="75.982" fill="#F57E20" width="57.753" height="46.903"/>
	</g>
</g>
</svg>
