<?xml version="1.0" encoding="utf-8"?>
<!-- Generator: Adobe Illustrator 15.0.0, SVG Export Plug-In . SVG Version: 6.00 Build 0)  -->
<!DOCTYPE svg PUBLIC "-//W3C//DTD SVG 1.1//EN" "http://www.w3.org/Graphics/SVG/1.1/DTD/svg11.dtd">
<svg version="1.1" xmlns="http://www.w3.org/2000/svg" xmlns:xlink="http://www.w3.org/1999/xlink" x="0px" y="0px"
	 width="841.89px" height="841.89px" viewBox="0 0 841.89 841.89" enable-background="new 0 0 841.89 841.89" xml:space="preserve">
<g id="Layer_2">
</g>
<g id="Layer_1">
	<g>
		<rect x="481.942" y="718.147" fill="#F57E20" width="119.169" height="22.648"/>
		<rect x="499.961" y="630.058" fill="#F57E20" width="82.771" height="67.223"/>
	</g>
	<g>
		<rect x="631.195" y="718.147" fill="#F57E20" width="119.169" height="22.648"/>
		<rect x="649.215" y="630.058" fill="#F57E20" width="82.771" height="67.223"/>
	</g>
	<g>
		<rect x="93.436" y="718.147" fill="#F57E20" width="119.168" height="22.648"/>
		<rect x="111.454" y="630.058" fill="#F57E20" width="82.771" height="67.223"/>
	</g>
	<g>
		<rect x="242.689" y="718.147" fill="#F57E20" width="119.168" height="22.648"/>
		<rect x="260.708" y="630.058" fill="#F57E20" width="82.771" height="67.223"/>
	</g>
	<g>
		<rect x="481.942" y="318.146" fill="#F57E20" width="119.167" height="22.649"/>
		<rect x="499.96" y="230.058" fill="#F57E20" width="82.771" height="67.223"/>
	</g>
	<g>
		<rect x="631.195" y="318.146" fill="#F57E20" width="119.169" height="22.649"/>
		<rect x="649.214" y="230.058" fill="#F57E20" width="82.772" height="67.223"/>
	</g>
	<g>
		<rect x="93.436" y="318.146" fill="#F57E20" width="119.168" height="22.649"/>
		<rect x="111.454" y="230.058" fill="#F57E20" width="82.771" height="67.223"/>
	</g>
	<g>
		<rect x="242.688" y="318.146" fill="#F57E20" width="119.168" height="22.649"/>
		<rect x="260.707" y="230.058" fill="#F57E20" width="82.771" height="67.223"/>
	</g>
	<rect x="65.041" y="496.468" fill="#F57E20" width="323.718" height="85.04"/>
	<rect x="455.041" y="496.468" fill="#F57E20" width="323.718" height="85.04"/>
	<rect x="65.041" y="96.468" fill="#F57E20" width="323.718" height="85.04"/>
	<rect x="455.041" y="96.468" fill="#F57E20" width="323.718" height="85.04"/>
</g>
</svg>
