<?xml version="1.0" encoding="utf-8"?>
<!-- Generator: Adobe Illustrator 15.0.0, SVG Export Plug-In . SVG Version: 6.00 Build 0)  -->
<!DOCTYPE svg PUBLIC "-//W3C//DTD SVG 1.1//EN" "http://www.w3.org/Graphics/SVG/1.1/DTD/svg11.dtd">
<svg version="1.1" xmlns="http://www.w3.org/2000/svg" xmlns:xlink="http://www.w3.org/1999/xlink" x="0px" y="0px"
	 width="841.89px" height="841.89px" viewBox="0 0 841.89 841.89" enable-background="new 0 0 841.89 841.89" xml:space="preserve">
<g id="Layer_2">
</g>
<g id="Layer_1">
	<g>
		<rect x="441.041" y="718.888" fill="#F57E20" width="143.718" height="27.314"/>
		<rect x="462.771" y="612.651" fill="#F57E20" width="99.822" height="81.071"/>
	</g>
	<g>
		<rect x="621.041" y="718.888" fill="#F57E20" width="143.718" height="27.314"/>
		<rect x="642.771" y="612.651" fill="#F57E20" width="99.822" height="81.071"/>
	</g>
	<g>
		<rect x="81.041" y="718.888" fill="#F57E20" width="143.718" height="27.314"/>
		<rect x="102.771" y="612.651" fill="#F57E20" width="99.822" height="81.071"/>
	</g>
	<g>
		<rect x="261.041" y="718.888" fill="#F57E20" width="143.718" height="27.314"/>
		<rect x="282.771" y="612.651" fill="#F57E20" width="99.822" height="81.071"/>
	</g>
	<g>
		<rect x="441.041" y="458.888" fill="#F57E20" width="143.718" height="27.314"/>
		<rect x="462.771" y="352.651" fill="#F57E20" width="99.822" height="81.071"/>
	</g>
	<g>
		<rect x="621.041" y="458.888" fill="#F57E20" width="143.718" height="27.314"/>
		<rect x="642.771" y="352.651" fill="#F57E20" width="99.822" height="81.071"/>
	</g>
	<g>
		<rect x="81.041" y="458.888" fill="#F57E20" width="143.718" height="27.314"/>
		<rect x="102.771" y="352.651" fill="#F57E20" width="99.822" height="81.071"/>
	</g>
	<g>
		<rect x="261.041" y="458.888" fill="#F57E20" width="143.718" height="27.314"/>
		<rect x="282.771" y="352.651" fill="#F57E20" width="99.822" height="81.071"/>
	</g>
	<g>
		<rect x="441.041" y="198.888" fill="#F57E20" width="143.718" height="27.314"/>
		<rect x="462.771" y="92.651" fill="#F57E20" width="99.822" height="81.071"/>
	</g>
	<g>
		<rect x="621.041" y="198.888" fill="#F57E20" width="143.718" height="27.314"/>
		<rect x="642.771" y="92.651" fill="#F57E20" width="99.822" height="81.071"/>
	</g>
	<g>
		<rect x="81.041" y="198.888" fill="#F57E20" width="143.718" height="27.314"/>
		<rect x="102.771" y="92.651" fill="#F57E20" width="99.822" height="81.071"/>
	</g>
	<g>
		<rect x="261.041" y="198.888" fill="#F57E20" width="143.718" height="27.314"/>
		<rect x="282.771" y="92.651" fill="#F57E20" width="99.822" height="81.071"/>
	</g>
</g>
</svg>
