<?xml version="1.0" encoding="utf-8"?>
<!-- Generator: Adobe Illustrator 15.0.0, SVG Export Plug-In . SVG Version: 6.00 Build 0)  -->
<!DOCTYPE svg PUBLIC "-//W3C//DTD SVG 1.1//EN" "http://www.w3.org/Graphics/SVG/1.1/DTD/svg11.dtd">
<svg version="1.1" xmlns="http://www.w3.org/2000/svg" xmlns:xlink="http://www.w3.org/1999/xlink" x="0px" y="0px"
	 width="841.89px" height="841.89px" viewBox="0 0 841.89 841.89" enable-background="new 0 0 841.89 841.89" xml:space="preserve">
<g id="Layer_2">
	<g>
		<path fill="#F57E20" d="M421.824,227.644c-106.073,0-192.368,86.294-192.368,192.365c0,106.069,86.295,192.369,192.368,192.369
			c106.071,0,192.366-86.3,192.366-192.369C614.19,313.938,527.896,227.644,421.824,227.644z M421.023,593.847
			c-95.414,0-173.037-77.623-173.037-173.037c0-95.413,77.624-173.036,173.037-173.036c95.411,0,173.034,77.623,173.034,173.036
			C594.058,516.224,516.435,593.847,421.023,593.847z"/>
		<path fill="#F57E20" d="M421.377,280.036c-77.43,0-140.424,62.992-140.424,140.421c0,77.428,62.994,140.422,140.424,140.422
			c77.429,0,140.421-62.994,140.421-140.422C561.798,343.027,498.806,280.036,421.377,280.036z M421.377,556.396
			c-74.959,0-135.941-60.983-135.941-135.938c0-74.958,60.982-135.939,135.941-135.939c74.957,0,135.938,60.98,135.938,135.939
			C557.314,495.412,496.334,556.396,421.377,556.396z"/>
	</g>
</g>
<g id="Layer_1">
	<g>
		<rect x="58.885" y="343.151" fill="#F57E20" width="27.314" height="143.719"/>
		<rect x="111.364" y="364.881" fill="#F57E20" width="81.071" height="99.824"/>
	</g>
	<g>
		
			<rect x="165.757" y="597.515" transform="matrix(0.7071 -0.7071 0.7071 0.7071 -420.7879 322.9508)" fill="#F57E20" width="27.315" height="143.719"/>
		
			<rect x="194.839" y="563.199" transform="matrix(0.7071 -0.7071 0.7071 0.7071 -364.5886 345.9974)" fill="#F57E20" width="81.07" height="99.821"/>
	</g>
	<g>
		<rect x="759.124" y="347.127" fill="#F57E20" width="27.315" height="143.719"/>
		<rect x="652.889" y="368.857" fill="#F57E20" width="81.071" height="99.823"/>
	</g>
	<g>
		
			<rect x="657.007" y="593.34" transform="matrix(-0.7071 -0.7071 0.7071 -0.7071 674.505 1609.8005)" fill="#F57E20" width="27.317" height="143.721"/>
		
			<rect x="574.169" y="559.018" transform="matrix(-0.7071 -0.7071 0.7071 -0.7071 618.7736 1474.1719)" fill="#F57E20" width="81.073" height="99.825"/>
	</g>
	<g>
		
			<rect x="657.159" y="100.857" transform="matrix(-0.7071 0.7071 -0.7071 -0.7071 1267.3005 -179.4708)" fill="#F57E20" width="27.318" height="143.719"/>
		
			<rect x="574.014" y="178.767" transform="matrix(-0.7071 0.7071 -0.7071 -0.7071 1210.8008 -44.1747)" fill="#F57E20" width="81.071" height="99.822"/>
	</g>
	<g>
		
			<rect x="162.824" y="95.802" transform="matrix(0.7071 0.7071 -0.7071 0.7071 170.2418 -75.6832)" fill="#F57E20" width="27.313" height="143.719"/>
		
			<rect x="192.214" y="173.709" transform="matrix(0.7071 0.7071 -0.7071 0.7071 226.2892 -99.0815)" fill="#F57E20" width="81.07" height="99.824"/>
	</g>
	<g>
		<rect x="352.718" y="55.819" fill="#F57E20" width="143.719" height="27.314"/>
		<rect x="374.883" y="108.298" fill="#F57E20" width="99.823" height="81.071"/>
	</g>
	<g>
		<rect x="351.041" y="756.888" fill="#F57E20" width="143.718" height="27.314"/>
		<rect x="372.771" y="650.651" fill="#F57E20" width="99.823" height="81.071"/>
	</g>
</g>
</svg>
