<?xml version="1.0" encoding="utf-8"?>
<!-- Generator: Adobe Illustrator 15.0.0, SVG Export Plug-In . SVG Version: 6.00 Build 0)  -->
<!DOCTYPE svg PUBLIC "-//W3C//DTD SVG 1.1//EN" "http://www.w3.org/Graphics/SVG/1.1/DTD/svg11.dtd">
<svg version="1.1" xmlns="http://www.w3.org/2000/svg" xmlns:xlink="http://www.w3.org/1999/xlink" x="0px" y="0px"
	 width="841.89px" height="841.89px" viewBox="0 0 841.89 841.89" enable-background="new 0 0 841.89 841.89" xml:space="preserve">
<g id="Layer_2">
	<g>
		<path fill="#F57E20" d="M676.626,67.669c-58.33,0-105.786,47.454-105.786,105.784c0,58.329,47.456,105.786,105.786,105.786
			c58.331,0,105.786-47.457,105.786-105.786C782.412,115.123,734.957,67.669,676.626,67.669z M676.187,260.049
			c-47.507,0-86.155-38.648-86.155-86.155c0-47.505,38.648-86.155,86.155-86.155c47.505,0,86.153,38.649,86.153,86.155
			C762.34,221.4,723.691,260.049,676.187,260.049z"/>
		<path fill="#F57E20" d="M676.642,127.005c-25.765,0-46.725,20.96-46.725,46.725c0,25.764,20.96,46.725,46.725,46.725
			s46.725-20.961,46.725-46.725C723.366,147.965,702.406,127.005,676.642,127.005z M676.628,232.781
			c-32.555,0-59.039-26.484-59.039-59.038c0-32.552,26.484-59.037,59.039-59.037c32.553,0,59.035,26.484,59.035,59.037
			C735.663,206.297,709.181,232.781,676.628,232.781z"/>
	</g>
	<g>
		<path fill="#F57E20" d="M176.626,67.669c-58.33,0-105.786,47.454-105.786,105.784c0,58.329,47.456,105.786,105.786,105.786
			c58.331,0,105.786-47.457,105.786-105.786C282.412,115.123,234.957,67.669,176.626,67.669z M176.187,260.049
			c-47.507,0-86.155-38.648-86.155-86.155c0-47.505,38.648-86.155,86.155-86.155c47.505,0,86.153,38.649,86.153,86.155
			C262.34,221.4,223.691,260.049,176.187,260.049z"/>
		<path fill="#F57E20" d="M176.642,127.005c-25.765,0-46.725,20.96-46.725,46.725c0,25.764,20.96,46.725,46.725,46.725
			s46.725-20.961,46.725-46.725C223.366,147.965,202.406,127.005,176.642,127.005z M176.628,232.781
			c-32.555,0-59.039-26.484-59.039-59.038c0-32.552,26.484-59.037,59.039-59.037c32.553,0,59.035,26.484,59.035,59.037
			C235.663,206.297,209.181,232.781,176.628,232.781z"/>
	</g>
	<g>
		<path fill="#F57E20" d="M676.626,567.669c-58.33,0-105.786,47.454-105.786,105.784c0,58.329,47.456,105.786,105.786,105.786
			c58.331,0,105.786-47.457,105.786-105.786C782.412,615.123,734.957,567.669,676.626,567.669z M676.187,760.049
			c-47.507,0-86.155-38.648-86.155-86.155c0-47.506,38.648-86.154,86.155-86.154c47.505,0,86.153,38.648,86.153,86.154
			C762.34,721.4,723.691,760.049,676.187,760.049z"/>
		<path fill="#F57E20" d="M676.642,627.005c-25.765,0-46.725,20.96-46.725,46.725c0,25.764,20.96,46.725,46.725,46.725
			s46.725-20.961,46.725-46.725C723.366,647.965,702.406,627.005,676.642,627.005z M676.628,732.781
			c-32.555,0-59.039-26.483-59.039-59.038c0-32.552,26.484-59.036,59.039-59.036c32.553,0,59.035,26.484,59.035,59.036
			C735.663,706.298,709.181,732.781,676.628,732.781z"/>
	</g>
	<g>
		<path fill="#F57E20" d="M176.626,567.669c-58.33,0-105.786,47.454-105.786,105.784c0,58.329,47.456,105.786,105.786,105.786
			c58.331,0,105.786-47.457,105.786-105.786C282.412,615.123,234.957,567.669,176.626,567.669z M176.187,760.049
			c-47.507,0-86.155-38.648-86.155-86.155c0-47.506,38.648-86.154,86.155-86.154c47.505,0,86.153,38.648,86.153,86.154
			C262.34,721.4,223.691,760.049,176.187,760.049z"/>
		<path fill="#F57E20" d="M176.642,627.005c-25.765,0-46.725,20.96-46.725,46.725c0,25.764,20.96,46.725,46.725,46.725
			s46.725-20.961,46.725-46.725C223.366,647.965,202.406,627.005,176.642,627.005z M176.628,732.781
			c-32.555,0-59.039-26.483-59.039-59.038c0-32.552,26.484-59.036,59.039-59.036c32.553,0,59.035,26.484,59.035,59.036
			C235.663,706.298,209.181,732.781,176.628,732.781z"/>
	</g>
</g>
<g id="Layer_1">
</g>
</svg>
