<?xml version="1.0" encoding="utf-8"?>
<!-- Generator: Adobe Illustrator 15.0.0, SVG Export Plug-In . SVG Version: 6.00 Build 0)  -->
<!DOCTYPE svg PUBLIC "-//W3C//DTD SVG 1.1//EN" "http://www.w3.org/Graphics/SVG/1.1/DTD/svg11.dtd">
<svg version="1.1" xmlns="http://www.w3.org/2000/svg" xmlns:xlink="http://www.w3.org/1999/xlink" x="0px" y="0px"
	 width="841.89px" height="841.89px" viewBox="0 0 841.89 841.89" enable-background="new 0 0 841.89 841.89" xml:space="preserve">
<g id="Layer_2">
	<path fill="#F57E20" d="M554.829,476.358c0.001,0.189,0.007,0.376,0.007,0.565c0,75.074-61.075,136.148-136.147,136.148
		c-75.074,0-136.149-61.074-136.149-136.148c0-0.083,0.002-0.166,0.002-0.248c-4.858-0.057-9.718-0.119-14.581-0.19
		c0.104,83.369,67.961,151.168,151.357,151.168c83.406,0,151.271-67.817,151.355-151.202
		C565.391,476.411,560.109,476.382,554.829,476.358z"/>
	<path fill="#F57E20" d="M525.924,476.501c0,0.049,0.002,0.098,0.002,0.146c0,58.976-47.98,106.958-106.958,106.958
		c-58.979,0-106.962-47.982-106.962-106.958c0-0.061,0.002-0.12,0.002-0.18c-1.177-0.001-2.351-0.004-3.528-0.005
		c0,0.062-0.002,0.123-0.002,0.185c0,60.921,49.565,110.486,110.489,110.486c60.922,0,110.486-49.565,110.486-110.486
		c0-0.059-0.002-0.116-0.002-0.174C528.274,476.485,527.101,476.489,525.924,476.501z"/>
</g>
<g id="Layer_3">
	<rect x="554.791" y="57.493" fill="#F57E20" width="15.886" height="419.156"/>
	<rect x="267.96" y="57.493" fill="#F57E20" width="14.59" height="419.156"/>
	<rect x="308.466" y="84.718" fill="#F57E20" width="3.568" height="391.869"/>
	<rect x="267.96" y="45.49" fill="#F57E20" width="302.717" height="14.59"/>
	<rect x="308.466" y="82.996" fill="#F57E20" width="220.988" height="3.568"/>
	<rect x="525.886" y="85.588" fill="#F57E20" width="3.568" height="391.868"/>
</g>
<g id="Layer_1">
	<g>
		<rect x="105.885" y="415.82" fill="#F57E20" width="21.492" height="113.081"/>
		<rect x="147.177" y="432.918" fill="#F57E20" width="63.789" height="78.543"/>
	</g>
	<g>
		
			<rect x="189.974" y="643.826" transform="matrix(0.7071 -0.7071 0.7071 0.7071 -436.4555 347.0836)" fill="#F57E20" width="21.491" height="113.081"/>
		
			<rect x="212.857" y="616.825" transform="matrix(0.7071 -0.7071 0.7071 0.7071 -392.2357 365.2135)" fill="#F57E20" width="63.788" height="78.541"/>
	</g>
	<g>
		<rect x="712.58" y="418.948" fill="#F57E20" width="21.492" height="113.082"/>
		<rect x="628.991" y="436.046" fill="#F57E20" width="63.789" height="78.544"/>
	</g>
	<g>
		<rect x="105.885" y="250.587" fill="#F57E20" width="21.492" height="113.081"/>
		<rect x="147.177" y="267.685" fill="#F57E20" width="63.789" height="78.544"/>
	</g>
	<g>
		<rect x="712.58" y="253.716" fill="#F57E20" width="21.492" height="113.082"/>
		<rect x="628.991" y="270.813" fill="#F57E20" width="63.789" height="78.543"/>
	</g>
	<g>
		<rect x="105.885" y="82.875" fill="#F57E20" width="21.492" height="113.082"/>
		<rect x="147.177" y="99.973" fill="#F57E20" width="63.789" height="78.543"/>
	</g>
	<g>
		<rect x="712.58" y="84.43" fill="#F57E20" width="21.492" height="113.082"/>
		<rect x="628.991" y="101.527" fill="#F57E20" width="63.789" height="78.543"/>
	</g>
	<g>
		
			<rect x="632.231" y="640.54" transform="matrix(-0.7071 -0.7071 0.7071 -0.7071 604.6906 1644.6455)" fill="#F57E20" width="21.494" height="113.083"/>
		
			<rect x="567.054" y="613.534" transform="matrix(-0.7071 -0.7071 0.7071 -0.7071 560.8551 1537.9307)" fill="#F57E20" width="63.789" height="78.545"/>
	</g>
	<g>
		<rect x="363.625" y="769.223" fill="#F57E20" width="113.082" height="21.491"/>
		<rect x="380.723" y="685.634" fill="#F57E20" width="78.542" height="63.788"/>
	</g>
</g>
</svg>
